<svg width="986" height="158" viewBox="0 0 986 158" fill="none" xmlns="http://www.w3.org/2000/svg">
<g clip-path="url(#clip0_0_272)">
<path d="M20 54C20 50.6863 22.6863 48 26 48H46C49.3137 48 52 50.6863 52 54V158H20V54Z" fill="#EAECF0"/>
<path d="M20 86.0833C20 82.7696 22.6863 80.0833 26 80.0833H46C49.3137 80.0833 52 82.7696 52 86.0833V158H20V86.0833Z" fill="#9E77ED"/>
<path d="M103.091 22C103.091 18.6863 105.777 16 109.091 16H129.091C132.405 16 135.091 18.6863 135.091 22V158H103.091V22Z" fill="#EAECF0"/>
<path d="M103.091 63.4167C103.091 60.103 105.777 57.4167 109.091 57.4167H129.091C132.405 57.4167 135.091 60.103 135.091 63.4167V158H103.091V63.4167Z" fill="#9E77ED"/>
<path d="M186.182 86C186.182 82.6863 188.868 80 192.182 80H212.182C215.496 80 218.182 82.6863 218.182 86V158H186.182V86Z" fill="#EAECF0"/>
<path d="M186.182 108.75C186.182 105.436 188.868 102.75 192.182 102.75H212.182C215.496 102.75 218.182 105.436 218.182 108.75V158H186.182V108.75Z" fill="#9E77ED"/>
<path d="M269.273 46C269.273 42.6863 271.959 40 275.273 40H295.273C298.586 40 301.273 42.6863 301.273 46V158H269.273V46Z" fill="#EAECF0"/>
<path d="M269.273 80.4167C269.273 77.103 271.959 74.4167 275.273 74.4167H295.273C298.586 74.4167 301.273 77.103 301.273 80.4167V158H269.273V80.4167Z" fill="#9E77ED"/>
<path d="M352.364 86C352.364 82.6863 355.05 80 358.364 80H378.364C381.677 80 384.364 82.6863 384.364 86V158H352.364V86Z" fill="#EAECF0"/>
<path d="M352.364 108.75C352.364 105.436 355.05 102.75 358.364 102.75H378.364C381.677 102.75 384.364 105.436 384.364 108.75V158H352.364V108.75Z" fill="#9E77ED"/>
<path d="M435.455 30C435.455 26.6863 438.141 24 441.455 24H461.455C464.768 24 467.455 26.6863 467.455 30V158H435.455V30Z" fill="#EAECF0"/>
<path d="M435.455 69.0833C435.455 65.7696 438.141 63.0833 441.455 63.0833H461.455C464.768 63.0833 467.455 65.7696 467.455 69.0833V158H435.455V69.0833Z" fill="#9E77ED"/>
<path d="M518.545 54C518.545 50.6863 521.232 48 524.545 48H544.545C547.859 48 550.545 50.6863 550.545 54V158H518.545V54Z" fill="#EAECF0"/>
<path d="M518.545 86.0833C518.545 82.7696 521.232 80.0833 524.545 80.0833H544.545C547.859 80.0833 550.545 82.7696 550.545 86.0833V158H518.545V86.0833Z" fill="#9E77ED"/>
<path d="M601.636 46C601.636 42.6863 604.323 40 607.636 40H627.636C630.95 40 633.636 42.6863 633.636 46V158H601.636V46Z" fill="#EAECF0"/>
<path d="M601.636 80.4167C601.636 77.103 604.323 74.4167 607.636 74.4167H627.636C630.95 74.4167 633.636 77.103 633.636 80.4167V158H601.636V80.4167Z" fill="#9E77ED"/>
<path d="M684.727 54C684.727 50.6863 687.414 48 690.727 48H710.727C714.041 48 716.727 50.6863 716.727 54V158H684.727V54Z" fill="#EAECF0"/>
<path d="M684.727 86.0833C684.727 82.7696 687.414 80.0833 690.727 80.0833H710.727C714.041 80.0833 716.727 82.7696 716.727 86.0833V158H684.727V86.0833Z" fill="#9E77ED"/>
<path d="M767.818 38C767.818 34.6863 770.505 32 773.818 32H793.818C797.132 32 799.818 34.6863 799.818 38V158H767.818V38Z" fill="#EAECF0"/>
<path d="M767.818 74.75C767.818 71.4363 770.505 68.75 773.818 68.75H793.818C797.132 68.75 799.818 71.4363 799.818 74.75V158H767.818V74.75Z" fill="#9E77ED"/>
<path d="M850.909 22C850.909 18.6863 853.595 16 856.909 16H876.909C880.223 16 882.909 18.6863 882.909 22V158H850.909V22Z" fill="#EAECF0"/>
<path d="M850.909 63.4167C850.909 60.103 853.595 57.4167 856.909 57.4167H876.909C880.223 57.4167 882.909 60.103 882.909 63.4167V158H850.909V63.4167Z" fill="#9E77ED"/>
<path d="M934 62C934 58.6863 936.686 56 940 56H960C963.314 56 966 58.6863 966 62V158H934V62Z" fill="#EAECF0"/>
<path d="M934 91.75C934 88.4363 936.686 85.75 940 85.75H960C963.314 85.75 966 88.4363 966 91.75V158H934V91.75Z" fill="#9E77ED"/>
</g>
<defs>
<clipPath id="clip0_0_272">
<rect width="986" height="158" fill="white"/>
</clipPath>
</defs>
</svg>
